#Comment line ignore any data following # character 
#Hierarchical Translation and Rotation (.htr) file 
[Header]	
#Header keywords are followed by a single value 
FileType HTR		#Single word string
DataType HTRS		#Translation followed by rotation and scale data
FileVersion 1		#integer
NumSegments 64		#integer
NumFrames 2		#integer
DataFrameRate 30		#integer, data frame rate in this file
EulerRotationOrder ZYX
CalibrationUnits mm
RotationUnits Degrees
GlobalAxisofGravity Y
BoneLengthAxis Y
ScaleFactor 1.00
[SegmentNames&Hierarchy]
#CHILD	PARENT
Pinger_Root GLOBAL
Pelvis Pinger_Root
L_Hip Pelvis
R_Hip Pelvis
Rear_Leg01 Pelvis
Spine1 Pelvis
L_Leg01 L_Hip
L_Leg02 L_Leg01
L_Leg03 L_Leg02
L_Foot L_Leg03
L_Toe1_01 L_Foot
L_Toe2_01 L_Foot
L_Toe3_01 L_Foot
planeAlignerLeft L_Foot
L_Toe1_02 L_Toe1_01
L_Toe1_03 L_Toe1_02
L_Toe2_02 L_Toe2_01
L_Toe2_03 L_Toe2_02
L_Toe3_02 L_Toe3_01
L_Toe3_03 L_Toe3_02
planeLockWeightLeft planeAlignerLeft
R_Leg01 R_Hip
R_Leg02 R_Leg01
R_Leg03 R_Leg02
R_Foot R_Leg03
planeAlignerRight R_Foot
R_Toe1_01 R_Foot
R_Toe2_01 R_Foot
R_Toe3_01 R_Foot
planeLockWeightRight planeAlignerRight
R_Toe1_02 R_Toe1_01
R_Toe1_03 R_Toe1_02
R_Toe2_02 R_Toe2_01
R_Toe2_03 R_Toe2_02
R_Toe3_02 R_Toe3_01
R_Toe3_03 R_Toe3_02
Rear_Leg02 Rear_Leg01
Rear_Leg03 Rear_Leg02
Rear_Leg04 Rear_Leg03
Rear_Foot Rear_Leg04
planeAlignerCenter Rear_Foot
Rear_Toe1_01 Rear_Foot
Rear_Toe2_01 Rear_Foot
Rear_Toe3_01 Rear_Foot
planeLockWeightCenter planeAlignerCenter
Rear_Toe1_02 Rear_Toe1_01
Rear_Toe1_03 Rear_Toe1_02
Rear_Toe2_02 Rear_Toe2_01
Rear_Toe2_03 Rear_Toe2_02
Rear_Toe3_02 Rear_Toe3_01
Rear_Toe3_03 Rear_Toe3_02
Back_Bone Spine1
Head Spine1
Motor_Bone Back_Bone
Ping_Mechanism Back_Bone
BN_LookIK Head
bottomMouth Head
L_Mouth01 Head
L_mouthFront Head
mouthGun Head
R_Mouth01 Head
R_mouthFront Head
TopMouth Head
weapon_bone Head
[BasePosition]
#SegmentName Tx, Ty, Tz, Rx, Ry, Rz, BoneLength
Pinger_Root 0.000000 0.000000 0.000000 -90.000000 0.000000 0.000000 10.000000 
Pelvis 0.000000 0.000000 0.000000 0.000000 0.000000 0.000000 10.000000 
L_Hip 0.000000 0.000000 0.000000 0.000000 0.000000 0.000000 10.000000 
R_Hip 0.000000 0.000000 0.000000 0.000000 0.000000 0.000000 10.000000 
Rear_Leg01 0.000000 0.000000 0.000000 0.000000 0.000000 0.000000 10.000000 
Spine1 0.000000 0.000000 0.000000 0.000000 0.000000 0.000000 10.000000 
L_Leg01 0.000000 0.000000 0.000000 0.000000 0.000000 0.000000 10.000000 
L_Leg02 0.000000 0.000000 0.000000 0.000000 0.000000 0.000000 10.000000 
L_Leg03 0.000000 0.000000 0.000000 0.000000 0.000000 0.000000 10.000000 
L_Foot 0.000000 0.000000 0.000000 0.000000 0.000000 0.000000 10.000000 
L_Toe1_01 0.000000 0.000000 0.000000 0.000000 0.000000 0.000000 10.000000 
L_Toe2_01 0.000000 0.000000 0.000000 0.000000 0.000000 0.000000 10.000000 
L_Toe3_01 0.000000 0.000000 0.000000 0.000000 0.000000 0.000000 10.000000 
planeAlignerLeft 0.000000 0.000000 0.000000 0.000000 0.000000 0.000000 10.000000 
L_Toe1_02 0.000000 0.000000 0.000000 0.000000 0.000000 0.000000 10.000000 
L_Toe1_03 0.000000 0.000000 0.000000 0.000000 0.000000 0.000000 10.000000 
L_Toe2_02 0.000000 0.000000 0.000000 0.000000 0.000000 0.000000 10.000000 
L_Toe2_03 0.000000 0.000000 0.000000 0.000000 0.000000 0.000000 10.000000 
L_Toe3_02 0.000000 0.000000 0.000000 0.000000 0.000000 0.000000 10.000000 
L_Toe3_03 0.000000 0.000000 0.000000 0.000000 0.000000 0.000000 10.000000 
planeLockWeightLeft 0.000000 0.000000 0.000000 0.000000 0.000000 0.000000 10.000000 
R_Leg01 0.000000 0.000000 0.000000 0.000000 0.000000 0.000000 10.000000 
R_Leg02 0.000000 0.000000 0.000000 0.000000 0.000000 0.000000 10.000000 
R_Leg03 0.000000 0.000000 0.000000 0.000000 0.000000 0.000000 10.000000 
R_Foot 0.000000 0.000000 0.000000 0.000000 0.000000 0.000000 10.000000 
planeAlignerRight 0.000000 0.000000 0.000000 0.000000 0.000000 0.000000 10.000000 
R_Toe1_01 0.000000 0.000000 0.000000 0.000000 0.000000 0.000000 10.000000 
R_Toe2_01 0.000000 0.000000 0.000000 0.000000 0.000000 0.000000 10.000000 
R_Toe3_01 0.000000 0.000000 0.000000 0.000000 0.000000 0.000000 10.000000 
planeLockWeightRight 0.000000 0.000000 0.000000 0.000000 0.000000 0.000000 10.000000 
R_Toe1_02 0.000000 0.000000 0.000000 0.000000 0.000000 0.000000 10.000000 
R_Toe1_03 0.000000 0.000000 0.000000 0.000000 0.000000 0.000000 10.000000 
R_Toe2_02 0.000000 0.000000 0.000000 0.000000 0.000000 0.000000 10.000000 
R_Toe2_03 0.000000 0.000000 0.000000 0.000000 0.000000 0.000000 10.000000 
R_Toe3_02 0.000000 0.000000 0.000000 0.000000 0.000000 0.000000 10.000000 
R_Toe3_03 0.000000 0.000000 0.000000 0.000000 0.000000 0.000000 10.000000 
Rear_Leg02 0.000000 0.000000 0.000000 0.000000 0.000000 0.000000 10.000000 
Rear_Leg03 0.000000 0.000000 0.000000 0.000000 0.000000 0.000000 10.000000 
Rear_Leg04 0.000000 0.000000 0.000000 0.000000 0.000000 0.000000 10.000000 
Rear_Foot 0.000000 0.000000 0.000000 0.000000 0.000000 0.000000 10.000000 
planeAlignerCenter 0.000000 0.000000 0.000000 0.000000 0.000000 0.000000 10.000000 
Rear_Toe1_01 0.000000 0.000000 0.000000 0.000000 0.000000 0.000000 10.000000 
Rear_Toe2_01 0.000000 0.000000 0.000000 0.000000 0.000000 0.000000 10.000000 
Rear_Toe3_01 0.000000 0.000000 0.000000 0.000000 0.000000 0.000000 10.000000 
planeLockWeightCenter 0.000000 0.000000 0.000000 0.000000 0.000000 0.000000 10.000000 
Rear_Toe1_02 0.000000 0.000000 0.000000 0.000000 0.000000 0.000000 10.000000 
Rear_Toe1_03 0.000000 0.000000 0.000000 0.000000 0.000000 0.000000 10.000000 
Rear_Toe2_02 0.000000 0.000000 0.000000 0.000000 0.000000 0.000000 10.000000 
Rear_Toe2_03 0.000000 0.000000 0.000000 0.000000 0.000000 0.000000 10.000000 
Rear_Toe3_02 0.000000 0.000000 0.000000 0.000000 0.000000 0.000000 10.000000 
Rear_Toe3_03 0.000000 0.000000 0.000000 0.000000 0.000000 0.000000 10.000000 
Back_Bone 0.000000 0.000000 0.000000 0.000000 0.000000 0.000000 10.000000 
Head 0.000000 0.000000 0.000000 0.000000 0.000000 0.000000 10.000000 
Motor_Bone 0.000000 0.000000 0.000000 0.000000 0.000000 0.000000 10.000000 
Ping_Mechanism 0.000000 0.000000 0.000000 0.000000 0.000000 0.000000 10.000000 
BN_LookIK 0.000000 0.000000 0.000000 0.000000 0.000000 0.000000 10.000000 
bottomMouth 0.000000 0.000000 0.000000 0.000000 0.000000 0.000000 10.000000 
L_Mouth01 0.000000 0.000000 0.000000 0.000000 0.000000 0.000000 10.000000 
L_mouthFront 0.000000 0.000000 0.000000 0.000000 0.000000 0.000000 10.000000 
mouthGun 0.000000 0.000000 0.000000 0.000000 0.000000 0.000000 10.000000 
R_Mouth01 0.000000 0.000000 0.000000 0.000000 0.000000 0.000000 10.000000 
R_mouthFront 0.000000 0.000000 0.000000 0.000000 0.000000 0.000000 10.000000 
TopMouth 0.000000 0.000000 0.000000 0.000000 0.000000 0.000000 10.000000 
weapon_bone 0.000000 0.000000 0.000000 0.000000 0.000000 0.000000 10.000000 
#Beginning of Data. Separated by tabs
#Fr	Tx	Ty	Tz	Rx	Ry	Rz	SF
[Pinger_Root]
9 0.000000 0.000000 0.000000 -0.000075 -0.000000 -0.000020 0.000000
10 0.000000 0.000000 0.000000 -0.000075 -0.000000 -0.000020 0.000000
[Pelvis]
9 78.530174 748.355896 4600.546387 -158.386978 -80.659607 179.571823 4661.676758
10 63.687973 709.098938 4637.294434 -156.168121 -81.480049 -179.071228 4691.628418
[L_Hip]
9 5.766392 125.831482 872.656799 160.001236 -58.370327 116.329842 881.701050
10 5.766392 125.831482 872.656799 160.361404 -61.083023 114.956413 881.701050
[R_Hip]
9 5.765438 125.836372 -872.654907 35.888206 61.643661 122.850159 881.699829
10 5.765438 125.836372 -872.654907 35.030926 63.972179 121.970543 881.699829
[Rear_Leg01]
9 -192.298416 -925.602966 -0.001907 -173.523041 -25.145189 -147.323349 945.367432
10 -192.298416 -925.602966 -0.001907 -171.409744 -27.548859 -145.168839 945.367432
[Spine1]
9 290.604584 5.007505 0.000477 -12.387324 16.184328 21.279009 290.647736
10 290.604584 5.007505 0.000477 -15.268114 16.771875 21.343634 290.647736
[L_Leg01]
9 761.932007 -0.002384 -0.069261 44.092178 16.904795 -40.434799 761.932068
10 761.932007 -0.002384 -0.069261 39.911846 29.287350 -55.301636 761.932068
[L_Leg02]
9 1441.140503 -0.000954 -0.000715 1.163682 -0.142985 -118.917542 1441.140503
10 1441.140503 -0.000954 -0.000715 -1.308413 0.239881 -88.495499 1441.140503
[L_Leg03]
9 1686.963989 -0.000715 -0.000954 -0.014049 0.006631 114.517899 1686.963989
10 1686.963989 -0.000715 -0.000954 0.002313 -0.000397 109.488609 1686.963989
[L_Foot]
9 3041.570068 -30.715107 11.297464 -17.254278 14.405288 70.861229 3041.746094
10 3041.570068 -30.715107 11.297464 -29.206060 14.824801 64.142365 3041.746094
[L_Toe1_01]
9 -188.216690 -224.732346 -21.137953 82.918983 2.649708 -165.455093 293.899567
10 -188.216690 -224.732346 -21.137953 81.393417 4.820170 -164.753250 293.899567
[L_Toe2_01]
9 200.746536 -219.926590 148.838394 -77.735992 -2.153008 -58.846546 332.896027
10 200.746536 -219.926590 148.838394 -76.014252 1.685061 -59.382507 332.896027
[L_Toe3_01]
9 188.832520 -219.859131 -191.078659 -99.866333 26.666964 -70.666031 347.140900
10 188.832520 -219.859131 -191.078659 -101.155983 31.256538 -71.478470 347.140900
[planeAlignerLeft]
9 -60.158066 -685.878784 -134.470490 169.212662 -87.868797 99.068619 701.520508
10 -78.973442 -675.174561 -162.998322 169.289093 -89.423248 100.232307 699.046387
[L_Toe1_02]
9 413.761139 0.000477 0.000000 0.001506 -12.357237 0.001506 413.761139
10 413.761139 0.000477 0.000000 0.001496 -13.302412 0.001496 413.761139
[L_Toe1_03]
9 464.317322 0.000358 -0.000089 -179.998962 66.585411 -179.995392 464.317322
10 464.317322 0.000358 -0.000089 -179.998611 69.100243 -179.995056 464.317322
[L_Toe2_02]
9 342.235809 -0.000477 0.000238 0.006440 -80.577820 0.006440 342.235809
10 342.235809 -0.000477 0.000238 0.008196 -80.311966 0.008196 342.235809
[L_Toe2_03]
9 420.210846 -0.000715 0.000000 179.993607 29.976946 -179.998306 420.210846
10 420.210846 -0.000715 0.000000 179.993637 27.694304 -179.998184 420.210846
[L_Toe3_02]
9 329.270111 0.000954 0.000000 0.004676 -84.584999 0.004676 329.270111
10 329.270111 0.000954 0.000000 0.004676 -84.562279 0.004676 329.270111
[L_Toe3_03]
9 439.137451 -0.001907 0.000954 179.993484 36.512131 -179.998703 439.137451
10 439.137451 -0.001907 0.000954 179.993500 35.326748 -179.998627 439.137451
[planeLockWeightLeft]
9 259.259216 0.000000 -0.000248 -0.011826 -0.004376 0.005620 259.259216
10 740.740173 -0.000229 -0.000229 -0.011826 -0.004376 0.005620 740.740234
[R_Leg01]
9 761.455627 -0.001907 -0.000358 127.273033 5.778283 58.878601 761.455688
10 761.455627 -0.001907 -0.000358 127.200951 2.890839 57.286793 761.455688
[R_Leg02]
9 1441.140625 0.000000 -0.000238 -0.227995 0.100568 -94.561539 1441.140625
10 1441.140625 0.000000 -0.000238 -0.354786 0.102465 -101.513344 1441.140625
[R_Leg03]
9 1686.963989 0.000954 0.001431 0.018570 -0.007787 115.497131 1686.963989
10 1686.963989 0.000954 0.001431 0.018608 -0.007696 114.940735 1686.963989
[R_Foot]
9 3041.560059 -30.531288 -11.204481 2.580564 -38.807110 57.930134 3041.734131
10 3041.560059 -30.531288 -11.204481 2.974000 -40.384056 60.608517 3041.734131
[planeAlignerRight]
9 -127.973633 -540.416077 -315.490021 -36.577137 -71.339012 -64.343925 638.718018
10 -116.938782 -615.030212 -296.561005 -36.577137 -71.339012 -64.343925 692.737549
[R_Toe1_01]
9 -188.383347 -224.864899 21.052242 75.352631 -0.568319 -174.896210 294.101532
10 -188.383347 -224.864899 21.052242 75.021538 -1.404097 -170.590515 294.101532
[R_Toe2_01]
9 200.637817 -220.002121 -148.787384 -94.223816 32.857903 -56.940701 332.857574
10 200.637817 -220.002121 -148.787384 -96.016808 29.739681 -60.686035 332.857574
[R_Toe3_01]
9 188.606735 -220.092957 191.126343 -70.931015 -8.257010 -71.401314 347.192566
10 188.606735 -220.092957 191.126343 -70.216766 -7.488292 -75.421104 347.192566
[planeLockWeightRight]
9 999.999939 0.000305 -0.000574 -0.011823 -0.004379 -0.000027 999.999939
10 999.999939 0.000305 -0.000568 -0.011823 -0.004379 -0.000027 999.999939
[R_Toe1_02]
9 413.762085 0.000477 -0.000119 0.000006 -25.434675 -0.000005 413.762085
10 413.762085 0.000477 -0.000119 0.000006 -25.434675 -0.000005 413.762085
[R_Toe1_03]
9 464.317810 0.000000 0.001088 0.007078 70.911583 0.007078 464.317810
10 464.317810 0.000000 0.001088 0.006611 69.547844 0.006611 464.317810
[R_Toe2_02]
9 342.234741 -0.000954 0.000238 0.001194 -68.928185 0.001194 342.234741
10 342.234741 -0.000954 0.000238 0.001202 -64.879425 0.001202 342.234741
[R_Toe2_03]
9 420.210846 0.000715 -0.000268 0.010534 77.206558 0.010534 420.210846
10 420.210846 0.000715 -0.000268 -0.004946 69.094231 -0.001390 420.210846
[R_Toe3_02]
9 329.270355 -0.000477 -0.000954 0.001182 -76.564560 0.001182 329.270355
10 329.270355 -0.000477 -0.000954 0.001190 -70.761879 0.001190 329.270355
[R_Toe3_03]
9 439.137939 0.000238 0.001431 -0.048573 88.593193 -0.045076 439.137939
10 439.137939 0.000238 0.001431 0.008993 75.002113 0.008993 439.137939
[Rear_Leg02]
9 1162.777710 -0.029802 0.005960 0.741735 -13.805302 -94.491821 1162.777710
10 1162.777710 -0.029802 0.005960 0.444052 -15.951957 -88.934959 1162.777710
[Rear_Leg03]
9 607.192505 -0.013351 -0.073195 0.006527 -0.001942 61.342804 607.192505
10 607.192505 -0.013351 -0.073195 0.006535 -0.001917 60.906784 607.192505
[Rear_Leg04]
9 995.874512 -0.020504 -0.011921 -0.039710 -0.017174 52.496788 995.874573
10 995.874512 -0.020504 -0.011921 -0.039594 -0.017438 51.733006 995.874573
[Rear_Foot]
9 3096.176270 -0.067472 -0.041425 -138.670227 71.178818 46.172218 3096.176270
10 3096.176270 -0.067472 -0.041425 -135.764389 69.089104 47.576851 3096.176270
[planeAlignerCenter]
9 -2.264881 -54.360043 -631.108826 12.240772 -0.001473 179.998184 633.449707
10 -2.401790 -57.582699 -630.847839 12.240769 -0.001473 179.998184 633.474915
[Rear_Toe1_01]
9 0.653352 83.966492 -371.173737 0.361392 30.115261 90.593895 380.553192
10 0.653352 83.966492 -371.173737 0.363265 30.028326 90.602829 380.553192
[Rear_Toe2_01]
9 178.200760 -294.826019 -362.060547 -6.567104 26.497822 -66.909119 499.765686
10 178.200760 -294.826019 -362.060547 -6.297009 26.360329 -67.023712 499.765686
[Rear_Toe3_01]
9 -153.359680 -308.780914 -362.060852 4.008950 25.565172 -111.750259 499.952881
10 -153.359680 -308.780914 -362.060852 4.058157 25.349766 -111.579193 499.952881
[planeLockWeightCenter]
9 1000.000244 0.000448 -0.000113 -0.011814 -0.004373 -0.000015 1000.000244
10 1000.000244 0.000427 -0.000118 -0.011814 -0.004373 -0.000015 1000.000244
[Rear_Toe1_02]
9 379.707825 0.194073 0.000477 -0.000767 -33.624729 0.000838 379.707855
10 379.707825 0.194073 0.000477 -0.000767 -33.624729 0.000838 379.707855
[Rear_Toe1_03]
9 500.129700 0.165701 0.000119 0.011922 78.701569 0.011922 500.129761
10 500.129700 0.165701 0.000119 0.012532 79.252731 0.012532 500.129761
[Rear_Toe2_02]
9 340.494507 0.000238 -0.000954 0.001195 -68.287552 0.001195 340.494507
10 340.494507 0.000238 -0.000954 0.001196 -67.938728 0.001196 340.494507
[Rear_Toe2_03]
9 433.103577 0.000000 0.000238 0.006008 67.468880 0.006008 433.103546
10 433.103577 0.000000 0.000238 0.005873 66.947151 0.005873 433.103546
[Rear_Toe3_02]
9 340.494141 -0.000358 -0.000477 0.007397 -64.709541 -0.008575 340.494171
10 340.494141 -0.000358 -0.000477 0.007252 -64.235939 -0.008432 340.494171
[Rear_Toe3_03]
9 433.103577 0.001431 -0.000238 -0.000605 62.357491 -0.004206 433.103546
10 433.103577 0.001431 -0.000238 -0.000548 61.699612 -0.004154 433.103546
[Back_Bone]
9 1312.175781 -701.934692 0.000954 0.256995 0.472372 -85.143433 1488.125488
10 1312.175781 -701.934692 0.000954 -0.009131 0.556130 -85.060066 1488.125488
[Head]
9 1406.159424 809.709290 0.001431 -2.772182 1.883047 6.527205 1622.625488
10 1406.159424 809.709290 0.001431 -3.368797 2.554092 6.216910 1622.625488
[Motor_Bone]
9 1158.364380 -417.834747 0.000477 -0.667945 0.093768 -105.896309 1231.419434
10 1158.364380 -417.834747 0.000477 -0.739515 0.095990 -105.893898 1231.419434
[Ping_Mechanism]
9 1221.402832 -431.297607 -46.514515 0.000103 -0.000053 82.120995 1296.150513
10 1220.214722 -431.235352 -42.865086 0.000103 -0.000053 82.120995 1294.884277
[BN_LookIK]
9 193.241119 1380.371704 -0.002861 0.000000 89.965736 -31.038179 1393.832153
10 193.241119 1380.371704 -0.002861 0.000000 89.965736 -31.038179 1393.832153
[bottomMouth]
9 -435.092926 615.759399 -0.000954 -0.000022 0.000016 73.527184 753.966492
10 -435.092926 615.759399 -0.000954 -0.000022 0.000016 73.527184 753.966492
[L_Mouth01]
9 554.440979 7.658243 838.222046 150.204178 23.759130 109.605339 1005.027161
10 554.440979 7.658243 838.222046 150.204178 23.759130 109.605339 1005.027161
[L_mouthFront]
9 551.629089 934.514771 339.150421 0.000081 2.804060 79.119301 1136.941284
10 551.629089 934.514771 339.150421 0.000081 2.804060 79.119301 1136.941284
[mouthGun]
9 55.332661 1627.420898 0.000000 0.000023 0.000009 -11.038128 1628.361328
10 55.332661 1627.420898 0.000000 0.000023 0.000009 -11.038128 1628.361328
[R_Mouth01]
9 554.442383 7.659197 -838.223938 29.795891 -23.759109 109.605331 1005.029541
10 554.442383 7.659197 -838.223938 29.795891 -23.759109 109.605331 1005.029541
[R_mouthFront]
9 551.629089 934.514282 -339.151367 0.000029 -2.803930 79.119133 1136.941162
10 551.629089 934.514282 -339.151367 0.000029 -2.803930 79.119133 1136.941162
[TopMouth]
9 461.269867 -56.106091 -0.008583 -0.000059 -0.000268 92.025169 464.669525
10 461.269867 -56.106091 -0.008583 -0.000059 -0.000268 92.025169 464.669525
[weapon_bone]
9 -987.239868 1448.372803 0.001431 0.000000 89.965736 -31.038221 1752.833740
10 -987.239868 1448.372803 0.001431 0.000000 89.965736 -31.038221 1752.833740
